<svg width="37" height="27" viewBox="0 0 37 27" fill="none" xmlns="http://www.w3.org/2000/svg">
<path d="M5.5957 26H0.234375V0.300781H14.9648V4.76562H5.5957V11.3926H14.3145V15.8398H5.5957V26ZM27.709 9.79297C26.5723 9.79297 25.6816 10.1562 25.0371 10.8828C24.3926 11.5977 24.0234 12.6172 23.9297 13.9414H31.4531C31.4297 12.6172 31.084 11.5977 30.416 10.8828C29.748 10.1562 28.8457 9.79297 27.709 9.79297ZM28.4648 26.3516C25.3008 26.3516 22.8281 25.4785 21.0469 23.7324C19.2656 21.9863 18.375 19.5137 18.375 16.3145C18.375 13.0215 19.1953 10.4785 20.8359 8.68555C22.4883 6.88086 24.7676 5.97852 27.6738 5.97852C30.4512 5.97852 32.6133 6.76953 34.1602 8.35156C35.707 9.93359 36.4805 12.1191 36.4805 14.9082V17.5098H23.8066C23.8652 19.0332 24.3164 20.2227 25.1602 21.0781C26.0039 21.9336 27.1875 22.3613 28.7109 22.3613C29.8945 22.3613 31.0137 22.2383 32.0684 21.9922C33.123 21.7461 34.2246 21.3535 35.373 20.8145V24.9629C34.4355 25.4316 33.4336 25.7773 32.3672 26C31.3008 26.2344 30 26.3516 28.4648 26.3516Z" fill="#08090C"/>
</svg>
