<svg width="24" height="24" viewBox="0 0 24 24" fill="none" xmlns="http://www.w3.org/2000/svg">
<g clip-path="url(#clip0)">
<path d="M7 21H4C3.46957 21 2.96086 20.7893 2.58579 20.4142C2.21071 20.0391 2 19.5304 2 19V12C2 11.4696 2.21071 10.9609 2.58579 10.5858C2.96086 10.2107 3.46957 10 4 10H7M14 8V4C14 3.20435 13.6839 2.44129 13.1213 1.87868C12.5587 1.31607 11.7956 1 11 1L7 10V21H18.28C18.7623 21.0055 19.2304 20.8364 19.5979 20.524C19.9654 20.2116 20.2077 19.7769 20.28 19.3L21.66 10.3C21.7035 10.0134 21.6842 9.72068 21.6033 9.44225C21.5225 9.16382 21.3821 8.90629 21.1919 8.68751C21.0016 8.46873 20.7661 8.29393 20.5016 8.17522C20.2371 8.0565 19.9499 7.99672 19.66 8H14Z" stroke="#FFB600" stroke-width="2" stroke-linecap="round" stroke-linejoin="round"/>
</g>
<defs>
<clipPath id="clip0">
<rect width="24" height="24" fill="white"/>
</clipPath>
</defs>
</svg>
