<svg width="20" height="20" viewBox="0 0 20 20" fill="none" xmlns="http://www.w3.org/2000/svg">
<path d="M0.240864 6.69105C-0.0740691 6.99651 -0.0811729 7.4997 0.225473 7.81463C0.530934 8.12956 1.03412 8.13667 1.34905 7.83002L4.6227 4.6357L7.36001 7.27711C7.67613 7.58139 8.17931 7.57192 8.48359 7.2558L12.9554 2.73071V5.0122C12.9554 5.45263 13.3118 5.809 13.7522 5.809C14.1926 5.809 14.549 5.45263 14.549 5.0122V0.793752H14.5466C14.5466 0.587743 14.4673 0.382918 14.3098 0.227819C14.1429 0.0632489 13.9203 -0.0125245 13.7025 0.00168305H9.75634C9.31591 0.00168305 8.95954 0.358055 8.95954 0.798488C8.95954 1.23892 9.31591 1.59529 9.75634 1.59529H11.8437L7.89753 5.5876L5.17087 2.95566C4.86304 2.65967 4.37407 2.65849 4.06624 2.95921L0.240864 6.69105Z" fill="#F5F5F5"/>
<path d="M19 2H17C16.7348 2 16.4804 2.10536 16.2929 2.29289C16.1054 2.48043 16 2.73478 16 3V19.992H20V3C20 2.73478 19.8946 2.48043 19.7071 2.29289C19.5196 2.10536 19.2652 2 19 2ZM13 8H11C10.7348 8 10.4804 8.10536 10.2929 8.29289C10.1054 8.48043 10 8.73478 10 9V19.992H14V9C14 8.73478 13.8946 8.48043 13.7071 8.29289C13.5196 8.10536 13.2652 8 13 8ZM7 14H5C4.73478 14 4.48043 14.1054 4.29289 14.2929C4.10536 14.4804 4 14.7348 4 15V19.992H8V15C8 14.7348 7.89464 14.4804 7.70711 14.2929C7.51957 14.1054 7.26522 14 7 14Z" fill="#F5F5F5"/>
</svg>
