<svg width="150" height="150" viewBox="0 0 150 150" fill="none" xmlns="http://www.w3.org/2000/svg">
<path d="M141.224 79.6287C141.081 77.9429 139.996 76.5586 138.393 76.0157L125.388 71.6118L138.049 57.0863C138.889 56.1222 139.241 54.8472 139.014 53.5886C138.787 52.33 138.011 51.2586 136.886 50.6492L120.552 41.7994C119.485 41.2214 118.152 41.6175 117.573 42.6845C116.995 43.7515 117.392 45.0851 118.458 45.6631L134.568 54.3913L121.076 69.8704L78.4601 46.7805L86.3677 37.7087C87.2776 38.0427 88.2602 38.2249 89.2845 38.2249C92.4647 38.2249 95.2406 36.4662 96.6946 33.8714L108.905 40.4872C109.238 40.6674 109.596 40.7529 109.95 40.7529C110.73 40.7529 111.486 40.3363 111.884 39.6019C112.462 38.5349 112.066 37.2013 110.999 36.6232L97.7671 29.4545C97.618 24.9032 93.8718 21.2461 89.2848 21.2461C84.6037 21.2461 80.7954 25.0544 80.7954 29.7355C80.7954 31.7965 81.5342 33.6877 82.76 35.1598L75.001 44.0615L61.2545 28.2912C59.9567 26.802 57.8376 26.4191 56.1 27.3601L50.7266 30.2713C50.097 25.2923 45.8381 21.428 40.6909 21.428C35.1116 21.428 30.5723 25.9673 30.5723 31.5469C30.5723 34.6319 31.9619 37.3973 34.146 39.2547L13.1154 50.6492C11.9909 51.2586 11.2157 52.3297 10.9881 53.5886C10.7611 54.8472 11.1126 56.1222 11.9532 57.086L24.6136 71.6115L11.6089 76.0152C10.0061 76.558 8.9212 77.9423 8.77765 79.6281C8.63409 81.3138 9.46906 82.8619 10.9568 83.6678L26.2284 91.9419V100.236C26.2284 101.449 27.2119 102.433 28.4257 102.433C29.6395 102.433 30.623 101.449 30.623 100.236V94.3229L51.9887 105.899C52.9002 106.393 53.9171 106.644 54.9378 106.644C55.6052 106.644 56.2746 106.536 56.9168 106.319L72.804 100.94V144.657L31.5593 122.31C30.9819 121.997 30.6233 121.395 30.6233 120.738V111.083C30.6233 109.869 29.6398 108.886 28.426 108.886C27.2122 108.886 26.2287 109.869 26.2287 111.083V120.738C26.2287 123.009 27.4689 125.092 29.4658 126.174L72.056 149.25C72.9783 149.75 73.9899 150 75.0016 150C76.0132 150 77.0248 149.75 77.9471 149.25L120.537 126.174C122.534 125.092 123.774 123.009 123.774 120.738V91.9416L139.046 83.6675C140.533 82.8625 141.368 81.3147 141.224 79.6287ZM79.8584 62.6299C87.5501 64.7921 92.922 71.8849 92.922 79.8786C92.922 82.1045 92.5221 84.2649 91.7317 86.3119L75.001 95.3767L58.2703 86.3119C57.4802 84.2649 57.08 82.1045 57.08 79.8786C57.08 71.8602 62.4724 64.7613 70.1939 62.6153C71.3629 62.2904 72.0473 61.0789 71.7224 59.91C71.3977 58.7407 70.1857 58.0567 69.0171 58.3813C59.4015 61.054 52.6857 69.8938 52.6857 79.8786C52.6857 81.0827 52.7833 82.2713 52.9708 83.4408L33.0382 72.641L75.0016 49.9048L116.965 72.6413L97.0321 83.4411C97.2196 82.2715 97.3171 81.083 97.3171 79.8789C97.3171 69.9246 90.6272 61.0921 81.0482 58.3994C79.8798 58.0707 78.6666 58.7522 78.3385 59.92C78.0092 61.0883 78.6898 62.3015 79.8584 62.6299ZM89.2845 25.6412C91.5424 25.6412 93.3796 27.4782 93.3796 29.7361C93.3796 31.994 91.5424 33.8312 89.2845 33.8312C87.0265 33.8312 85.1896 31.994 85.1896 29.7361C85.1896 27.4782 87.0265 25.6412 89.2845 25.6412ZM40.6909 25.8232C43.8471 25.8232 46.4153 28.3911 46.4153 31.5475C46.4153 34.7037 43.8471 37.2719 40.6909 37.2719C37.5347 37.2719 34.9669 34.704 34.9669 31.5475C34.9669 28.3911 37.5347 25.8232 40.6909 25.8232ZM39.1405 41.5475C39.6462 41.6257 40.1639 41.6664 40.6909 41.6664C44.7861 41.6664 48.3178 39.2198 49.9089 35.713L58.0494 31.3026L71.5413 46.7811L28.9255 69.871L15.4333 54.3919L39.1405 41.5475ZM55.507 102.157C55.0371 102.317 54.5174 102.272 54.082 102.036L29.4822 88.7075C29.4757 88.704 29.469 88.7005 29.4625 88.697L13.4622 80.028L28.2215 75.0302L69.5274 97.4102L55.507 102.157ZM119.379 120.739C119.379 121.396 119.02 121.998 118.443 122.311L77.1983 144.658V100.94L93.0855 106.32C93.7277 106.537 94.3971 106.645 95.0648 106.645C96.0849 106.645 97.1021 106.393 98.0135 105.9L119.379 94.3238V120.739H119.379ZM95.9197 102.036C95.4843 102.272 94.9646 102.317 94.4947 102.157L80.4746 97.4102L121.78 75.0302L136.54 80.028L95.9197 102.036ZM136.984 80.1783C136.983 80.1783 136.983 80.178 136.982 80.178L136.984 80.1783Z" fill="#8A8A8A"/>
<path d="M91.4331 124.42L86.3925 127.151C85.3255 127.729 84.9294 129.063 85.5075 130.13C85.9053 130.864 86.6612 131.281 87.4416 131.281C87.795 131.281 88.1539 131.195 88.4864 131.015L93.5269 128.284C94.5939 127.706 94.99 126.372 94.412 125.305C93.8339 124.238 92.5009 123.842 91.4331 124.42Z" fill="#8A8A8A"/>
<path d="M49.1318 18.5033C49.561 18.9322 50.1235 19.147 50.6857 19.147C51.2479 19.147 51.8104 18.9325 52.2396 18.5033L54.0522 16.6907L55.8648 18.5033C56.294 18.9322 56.8565 19.147 57.4187 19.147C57.9809 19.147 58.5434 18.9325 58.9726 18.5033C59.8307 17.6452 59.8307 16.2539 58.9726 15.3961L57.1597 13.5832L58.9726 11.7703C59.8307 10.9122 59.8307 9.52092 58.9726 8.66311C58.1142 7.805 56.7232 7.805 55.8651 8.66311L54.0525 10.4757L52.2399 8.66311C51.3815 7.805 49.9905 7.805 49.1324 8.66311C48.2743 9.52122 48.2743 10.9125 49.1324 11.7703L50.9453 13.5832L49.1324 15.3961C48.2737 16.2539 48.2737 17.6452 49.1318 18.5033Z" fill="#8A8A8A"/>
<path d="M114.183 32.8979C114.612 33.3268 115.174 33.5415 115.736 33.5415C116.299 33.5415 116.861 33.3271 117.29 32.8979L119.103 31.0853L120.916 32.8979C121.345 33.3268 121.907 33.5415 122.469 33.5415C123.032 33.5415 123.594 33.3271 124.023 32.8979C124.881 32.0398 124.881 30.6485 124.023 29.7906L122.21 27.9778L124.023 26.1649C124.881 25.3068 124.881 23.9155 124.023 23.0576C123.165 22.1995 121.774 22.1995 120.916 23.0576L119.103 24.8702L117.291 23.0576C116.432 22.1995 115.041 22.1995 114.183 23.0576C113.325 23.9157 113.325 25.3071 114.183 26.1649L115.996 27.9778L114.183 29.7906C113.324 30.6485 113.324 32.0398 114.183 32.8979Z" fill="#8A8A8A"/>
<path d="M102.051 19.1458C107.329 19.1458 111.624 14.8515 111.624 9.57305C111.623 4.29434 107.329 0 102.051 0C96.7722 0 92.4775 4.29434 92.4775 9.57305C92.4775 14.8515 96.7719 19.1458 102.051 19.1458ZM102.051 4.39453C104.906 4.39453 107.229 6.71748 107.229 9.57305C107.229 12.4283 104.906 14.7513 102.051 14.7513C99.1953 14.7513 96.8721 12.4283 96.8721 9.57305C96.8721 6.71748 99.1953 4.39453 102.051 4.39453Z" fill="#8A8A8A"/>
<path d="M74.7536 82.1822C72.6366 82.1822 70.6386 82.8842 69.1245 84.1609C68.197 84.9432 68.0789 86.3295 68.8614 87.257C69.6434 88.1849 71.0297 88.3026 71.9575 87.5204C72.6694 86.9201 73.6878 86.5765 74.7539 86.5765H74.7686C75.8399 86.5797 76.8621 86.9298 77.5737 87.5371C77.9877 87.8904 78.4948 88.063 78.999 88.063C79.6198 88.063 80.2368 87.8014 80.6713 87.2922C81.4591 86.3693 81.3495 84.9821 80.4267 84.1943C78.9138 82.9029 76.9087 82.1881 74.7812 82.1816C74.7721 82.1822 74.7627 82.1822 74.7536 82.1822Z" fill="#8A8A8A"/>
<path d="M65.4572 75.676H65.4367C64.222 75.6581 63.2432 76.6449 63.2344 77.8581C63.2262 79.0715 64.2132 80.0621 65.4267 80.0705H65.4422C66.6484 80.0705 67.6307 79.0967 67.6392 77.8885C67.6477 76.675 66.671 75.6845 65.4572 75.676Z" fill="#8A8A8A"/>
<path d="M84.1358 80.0252C84.1434 80.0267 84.1513 80.0275 84.1589 80.029C84.2222 80.0413 84.2864 80.0516 84.3514 80.0583C84.3725 80.0604 84.3939 80.0604 84.415 80.0618C84.4639 80.0653 84.5128 80.07 84.5629 80.0703H84.5785C84.6541 80.0703 84.7288 80.0665 84.8026 80.0589C85.9121 79.9479 86.7781 79.0115 86.7781 77.8728C86.7781 76.7489 85.934 75.824 84.8457 75.6931C84.8357 75.6919 84.826 75.6896 84.8161 75.6887C84.766 75.6834 84.7147 75.6819 84.6634 75.6799C84.64 75.679 84.6171 75.6761 84.5934 75.6758H84.582C84.5817 75.6758 84.5811 75.6758 84.5808 75.6758H84.5729H84.56C84.5591 75.6758 84.5583 75.6758 84.5574 75.6758C83.3512 75.6758 82.3792 76.6496 82.3707 77.8578C82.3633 78.9251 83.1262 79.8192 84.1358 80.0252Z" fill="#8A8A8A"/>
</svg>
