<svg width="16" height="16" viewBox="0 0 16 16" fill="none" xmlns="http://www.w3.org/2000/svg">
<path d="M7.3335 1.33398C6.14681 1.33398 4.98677 1.68588 4.00008 2.34517C3.01338 3.00445 2.24435 3.94153 1.79022 5.03788C1.3361 6.13424 1.21728 7.34064 1.44879 8.50452C1.6803 9.66841 2.25174 10.7375 3.09086 11.5766C3.92997 12.4157 4.99907 12.9872 6.16296 13.2187C7.32684 13.4502 8.53324 13.3314 9.6296 12.8773C10.726 12.4231 11.663 11.6541 12.3223 10.6674C12.9816 9.68071 13.3335 8.52067 13.3335 7.33398C13.3317 5.74324 12.699 4.21818 11.5741 3.09335C10.4493 1.96853 8.92424 1.3358 7.3335 1.33398ZM7.3335 12.134C6.38415 12.134 5.45612 11.8525 4.66676 11.325C3.87741 10.7976 3.26218 10.0479 2.89888 9.17086C2.53558 8.29378 2.44052 7.32866 2.62573 6.39755C2.81094 5.46644 3.26809 4.61116 3.93939 3.93987C4.61068 3.26858 5.46596 2.81142 6.39706 2.62621C7.32817 2.44101 8.29329 2.53606 9.17038 2.89936C10.0475 3.26266 10.7971 3.87789 11.3246 4.66725C11.852 5.4566 12.1335 6.38463 12.1335 7.33398C12.132 8.60657 11.6259 9.82663 10.726 10.7265C9.82614 11.6263 8.60609 12.1325 7.3335 12.134ZM7.3335 3.73398C7.2547 3.73396 7.17667 3.74947 7.10386 3.77961C7.03106 3.80976 6.96491 3.85395 6.90919 3.90967C6.85347 3.96539 6.80927 4.03154 6.77913 4.10435C6.74898 4.17715 6.73348 4.25518 6.7335 4.33398V7.18338L5.90439 8.72998C5.82926 8.87031 5.81294 9.03473 5.85904 9.18709C5.90514 9.33944 6.00987 9.46725 6.1502 9.54238C6.29052 9.61752 6.45495 9.63383 6.60731 9.58774C6.75966 9.54164 6.88747 9.43691 6.9626 9.29658L7.8626 7.61728C7.90907 7.53008 7.93341 7.4328 7.9335 7.33398V4.33398C7.93352 4.25518 7.91801 4.17715 7.88787 4.10435C7.85772 4.03154 7.81353 3.96539 7.75781 3.90967C7.70209 3.85395 7.63594 3.80976 7.56313 3.77961C7.49033 3.74947 7.4123 3.73396 7.3335 3.73398Z" fill="#A0A0A0"/>
</svg>
