<svg width="32" height="33" viewBox="0 0 32 33" fill="none" xmlns="http://www.w3.org/2000/svg">
<path d="M16 0.789062C7.168 0.789062 0 7.95706 0 16.7891C0 25.6211 7.168 32.7891 16 32.7891C24.832 32.7891 32 25.6211 32 16.7891C32 7.95706 24.832 0.789062 16 0.789062ZM16 27.1891C14.672 27.1891 13.6 26.1171 13.6 24.7891H18.4C18.4 26.1171 17.328 27.1891 16 27.1891ZM24 23.1891H8V21.5891L9.6 19.9891V15.8131C9.6 12.4211 11.248 9.54106 14.4 8.78906V7.98906C14.4 7.07706 15.088 6.38906 16 6.38906C16.912 6.38906 17.6 7.07706 17.6 7.98906V8.78906C20.752 9.54106 22.4 12.4371 22.4 15.8131V19.9891L24 21.5891V23.1891Z" fill="#08090C"/>
</svg>
