<svg width="32" height="33" viewBox="0 0 32 33" fill="none" xmlns="http://www.w3.org/2000/svg">
<path d="M28.3048 26.9946C29.9473 25.02 31.0896 22.6793 31.6352 20.1704C32.1808 17.6614 32.1136 15.0581 31.4392 12.5806C30.7649 10.1031 29.5033 7.8243 27.7611 5.93701C26.019 4.04972 23.8475 2.60945 21.4305 1.73804C19.0134 0.866621 16.4218 0.589696 13.875 0.930689C11.3282 1.27168 8.90101 2.22056 6.79882 3.69705C4.69663 5.17355 2.98127 7.13422 1.79785 9.41321C0.614425 11.6922 -0.00224457 14.2225 6.13884e-06 16.7899C0.000869812 20.5223 1.31723 24.1352 3.71809 26.9946L3.69522 27.014C3.77527 27.11 3.86677 27.1923 3.94911 27.2871C4.05204 27.4048 4.16298 27.5157 4.26934 27.6299C4.58957 27.9773 4.91895 28.311 5.26434 28.6241C5.36956 28.7201 5.4782 28.8092 5.58457 28.9007C5.95054 29.216 6.32681 29.5154 6.7168 29.7943C6.76713 29.8286 6.81287 29.8731 6.86319 29.9085V29.8948C9.5418 31.7783 12.7372 32.7891 16.0126 32.7891C19.288 32.7891 22.4834 31.7783 25.162 29.8948V29.9085C25.2123 29.8731 25.2569 29.8286 25.3084 29.7943C25.6972 29.5143 26.0746 29.216 26.4406 28.9007C26.547 28.8092 26.6556 28.719 26.7608 28.6241C27.1062 28.3099 27.4356 27.9773 27.7558 27.6299C27.8622 27.5157 27.972 27.4048 28.0761 27.2871C28.1573 27.1923 28.2499 27.11 28.33 27.0129L28.3048 26.9946ZM16.0114 7.64806C17.0293 7.64806 18.0244 7.94965 18.8707 8.51469C19.717 9.07973 20.3767 9.88285 20.7662 10.8225C21.1557 11.7621 21.2577 12.7961 21.0591 13.7936C20.8605 14.7911 20.3703 15.7074 19.6506 16.4265C18.9308 17.1457 18.0138 17.6355 17.0155 17.8339C16.0172 18.0323 14.9824 17.9305 14.042 17.5412C13.1015 17.152 12.2978 16.4929 11.7323 15.6473C11.1667 14.8016 10.8649 13.8074 10.8649 12.7904C10.8649 11.4265 11.4071 10.1186 12.3723 9.1542C13.3375 8.18983 14.6465 7.64806 16.0114 7.64806ZM6.87006 26.9946C6.8899 25.4941 7.50016 24.0618 8.56882 23.0075C9.63748 21.9532 11.0786 21.3617 12.5804 21.3609H19.4425C20.9443 21.3617 22.3854 21.9532 23.4541 23.0075C24.5227 24.0618 25.133 25.4941 25.1528 26.9946C22.6446 29.253 19.3879 30.5029 16.0114 30.5029C12.635 30.5029 9.37831 29.253 6.87006 26.9946Z" fill="#08090C"/>
</svg>
