<svg width="24" height="24" viewBox="0 0 24 24" fill="none" xmlns="http://www.w3.org/2000/svg">
<path d="M6 3H16.5V3.417C16.5 4.026 16.371 4.584 16.113 5.0925C15.855 5.601 15.483 6.0375 15 6.405V10.695C15.4605 10.9125 15.8745 11.187 16.242 11.514C16.6095 11.8425 16.926 12.21 17.1915 12.6165C17.457 13.0215 17.6565 13.464 17.7885 13.9395C17.922 14.4165 17.9925 14.9085 18 15.417V16.167H12V21L11.25 22.5L10.5 21V16.167H4.5V15.417C4.5 14.9085 4.5705 14.421 4.71 13.9515C4.851 13.4835 5.0505 13.041 5.31 12.627C5.83633 11.7835 6.59747 11.1121 7.5 10.695V6.405C7.03888 6.05595 6.66252 5.6073 6.399 5.0925C6.13807 4.57243 6.00148 3.99886 6 3.417V3ZM7.629 4.167C7.692 4.3545 7.77 4.515 7.863 4.647C8.045 4.90874 8.28075 5.12863 8.5545 5.292L9 5.5725V11.7255L8.496 11.901C7.8795 12.12 7.356 12.4755 6.9255 12.9675C6.4965 13.4595 6.135 14.3595 6 15H16.5C16.368 14.3595 16.005 13.4595 15.5745 12.9675C15.153 12.4815 14.6115 12.1143 14.004 11.9025L13.5 11.724V5.5725L13.9455 5.3025C14.0865 5.217 14.211 5.1195 14.3205 5.01C14.4339 4.89654 14.5391 4.77524 14.6355 4.647C14.743 4.50296 14.8229 4.3402 14.871 4.167H7.629Z" fill="#FFB600"/>
</svg>
