<svg width="26" height="26" viewBox="0 0 26 26" fill="none" xmlns="http://www.w3.org/2000/svg">
<path d="M10.2746 22.435C10.7976 22.435 11.2216 22.011 11.2216 21.488C11.2216 20.965 10.7976 20.541 10.2746 20.541C9.75161 20.541 9.32764 20.965 9.32764 21.488C9.32764 22.011 9.75161 22.435 10.2746 22.435Z" stroke="#08090C" stroke-width="2" stroke-linecap="round" stroke-linejoin="round"/>
<path d="M20.6926 22.435C21.2156 22.435 21.6395 22.011 21.6395 21.488C21.6395 20.965 21.2156 20.541 20.6926 20.541C20.1696 20.541 19.7456 20.965 19.7456 21.488C19.7456 22.011 20.1696 22.435 20.6926 22.435Z" stroke="#08090C" stroke-width="2" stroke-linecap="round" stroke-linejoin="round"/>
<path d="M2.69873 2.54883H6.48661L9.02449 15.2288C9.11108 15.6647 9.34826 16.0564 9.69451 16.3351C10.0408 16.6138 10.474 16.7619 10.9184 16.7534H20.123C20.5674 16.7619 21.0006 16.6138 21.3469 16.3351C21.6931 16.0564 21.9303 15.6647 22.0169 15.2288L23.5321 7.28368H7.43358" stroke="#08090C" stroke-width="2" stroke-linecap="round" stroke-linejoin="round"/>
</svg>
