<svg width="13" height="13" viewBox="0 0 13 13" fill="none" xmlns="http://www.w3.org/2000/svg">
<path d="M4.41585 8.83429C4.56856 8.94242 4.7512 9.00023 4.93831 8.99954V8.99704C5.11474 8.99742 5.28736 8.94598 5.43486 8.8491C5.5823 8.75223 5.69805 8.61417 5.76767 8.45204L6.1508 7.28704C6.2393 7.0231 6.38799 6.78342 6.58505 6.58685C6.78217 6.39029 7.0223 6.24229 7.28642 6.15454L8.39767 5.79329C8.57667 5.73042 8.7313 5.61267 8.83949 5.45685C8.94774 5.30098 9.00405 5.11499 9.00042 4.9253C8.99686 4.73561 8.93349 4.55188 8.81949 4.40026C8.70542 4.24864 8.54642 4.13685 8.36517 4.0808L7.2683 3.72455C7.00299 3.63626 6.76186 3.4873 6.56424 3.28952C6.36655 3.09173 6.21767 2.85056 6.12955 2.58517L5.7683 1.47455C5.7053 1.29766 5.5888 1.14478 5.43492 1.03717C5.28099 0.929553 5.09744 0.87254 4.90967 0.874053C4.7219 0.875565 4.53926 0.935522 4.38714 1.0456C4.23501 1.15568 4.12095 1.31042 4.06081 1.4883L3.69644 2.6083C3.60857 2.86597 3.46334 3.10032 3.27171 3.29368C3.08008 3.48704 2.84705 3.63437 2.59019 3.72455L1.47956 4.08142C1.34745 4.12763 1.22789 4.20392 1.13034 4.30428C1.03279 4.40464 0.959924 4.52632 0.917486 4.65968C0.875049 4.79305 0.864211 4.93446 0.885836 5.07274C0.907455 5.21102 0.960936 5.34235 1.04206 5.45642C1.15262 5.61204 1.30942 5.72885 1.49019 5.79017L2.58644 6.14579C2.85246 6.23479 3.09406 6.3846 3.29206 6.58329C3.34522 6.63604 3.39491 6.69223 3.44081 6.75142C3.56529 6.91254 3.66145 7.09367 3.72519 7.28704L4.08644 8.39642C4.14798 8.5731 4.26314 8.72623 4.41585 8.83429ZM9.20749 11.9889C9.08842 11.904 8.9988 11.7841 8.95124 11.6458L8.74624 11.0164C8.70636 10.8967 8.63942 10.7879 8.55061 10.6983C8.46155 10.609 8.3528 10.5418 8.23311 10.502L7.61374 10.3002C7.46974 10.2519 7.3448 10.159 7.25686 10.0352C7.17105 9.91504 7.12517 9.77098 7.12561 9.62329C7.1258 9.47467 7.17236 9.32985 7.25874 9.20892C7.34455 9.08735 7.46661 8.9961 7.60749 8.94829L8.23624 8.74454C8.35311 8.70304 8.45892 8.63535 8.54561 8.5466C8.6323 8.45792 8.69749 8.35048 8.73624 8.23267L8.93874 7.61267C8.98636 7.47254 9.07636 7.35067 9.1963 7.26385C9.31624 7.1771 9.46011 7.12967 9.60817 7.12823C9.75617 7.12679 9.90099 7.17142 10.0225 7.25579C10.1442 7.34023 10.2365 7.46035 10.2869 7.59954L10.4925 8.23329C10.5327 8.3521 10.6 8.45998 10.6889 8.54848C10.7778 8.63692 10.886 8.7036 11.005 8.74329L11.625 8.94517C11.7679 8.98985 11.8931 9.07841 11.9829 9.19829C12.0727 9.31816 12.1224 9.46323 12.1251 9.61292C12.1279 9.76267 12.0834 9.90948 11.9979 10.0325C11.9125 10.1555 11.7906 10.2485 11.6494 10.2983L11.0156 10.5039C10.8968 10.5444 10.7889 10.6115 10.7 10.7002C10.611 10.7894 10.544 10.8981 10.5044 11.0177L10.3031 11.6358C10.2547 11.7797 10.1616 11.9045 10.0375 11.992C9.91749 12.0784 9.77342 12.1247 9.62561 12.1245C9.47542 12.1245 9.32911 12.077 9.20749 11.9889Z" fill="#FFB600"/>
</svg>
