<svg width="56" height="50" viewBox="0 0 56 50" fill="none" xmlns="http://www.w3.org/2000/svg">
<g clip-path="url(#clip0)">
<path stroke="black" stroke-width="1.3" d="M0 24.3214V19.6978C0 19.2363 0.292326 18.8382 0.701583 18.6889L39.2167 0.153818C39.3741 0.0542888 39.563 0 39.7609 0H52.7267L53.779 1.25317L54.71 2.73706L50.7344 7.77687L53.5002 8.78122L53.5812 8.61383L55.2587 10.6089L37.2963 48.7785V48.9233C37.2963 49.5159 36.8196 50 36.226 50H1.07036C0.481214 50 0 49.5205 0 48.9233V44.2771C0 43.9468 0.148412 43.6527 0.382273 43.4537L14.4859 29.601V28.1533L0.85899 25.371C0.355289 25.2714 0.00449733 24.8236 0 24.3214ZM52.8571 10.1113L49.6685 9.13409L37.2873 24.8281C37.2064 25.276 36.8511 25.6288 36.4059 25.7012L34.2741 26.0858L23.4176 40.884L36.4194 43.2184C36.5183 43.2365 36.6127 43.2682 36.7027 43.3089L52.8571 10.1113ZM4.30394 42.5986L14.4859 40.7438V32.6004L4.30394 42.5986ZM5.77007 18.6211H35.7538L50.3476 2.14893H39.9947L5.77007 18.6211ZM31.216 26.6332L22.6081 28.1804V38.3731L31.216 26.6332ZM2.14073 20.7745V23.4482L15.6732 26.2125C16.2084 26.2713 16.6266 26.7282 16.6266 27.2801V41.6395H16.6221C16.6221 42.1507 16.2623 42.6032 15.7451 42.6936L2.14073 45.1728V47.8511H35.1646V45.1819L21.3713 42.7027C20.8631 42.6212 20.4718 42.1779 20.4718 41.6395V27.2847C20.4673 26.7689 20.8316 26.312 21.3533 26.217L35.1691 23.7333V20.77H2.14073V20.7745Z" fill="#FFFFFF"/>
</g>
<defs>
<clipPath id="clip0">
<rect width="55.2632" height="50" fill="white"/>
</clipPath>
</defs>
</svg>
